<svg width="10" height="11" viewBox="0 0 10 11" fill="none" xmlns="http://www.w3.org/2000/svg">
<path d="M4.78123 1.3969C4.00311 2.17502 3.70623 3.32815 4.00311 4.38127L0.109353 8.27503C0.049978 8.3344 0.012478 8.41876 0.012478 8.50627L-1.57484e-05 10.1625C-0.00314387 10.3438 0.156234 10.5032 0.33749 10.4969L1.99061 10.4844C2.17499 10.4844 2.32186 10.3344 2.32186 10.15V9.38753H3.08748C3.17497 9.38753 3.26561 9.3469 3.32812 9.2844C3.3906 9.22189 3.42499 9.13753 3.42499 9.04689V8.27816L4.1906 8.28126C4.37186 8.28439 4.52811 8.12814 4.52498 7.94689V7.17815H5.29686C5.38435 7.17815 5.46873 7.14065 5.53124 7.08128L6.11561 6.4969C9.12812 7.32189 11.3031 3.62816 9.10311 1.3969C7.91249 0.203149 5.97186 0.203149 4.78123 1.3969ZM7.25312 2.29377C7.88748 1.68127 8.81872 2.6094 8.20311 3.2469C7.56873 3.8594 6.63748 2.93127 7.25312 2.29377Z" fill="#D7B27B"/>
</svg>
