<svg width="10" height="11" viewBox="0 0 10 11" fill="none" xmlns="http://www.w3.org/2000/svg">
<path fill-rule="evenodd" clip-rule="evenodd" d="M9.81715 9.29608C9.75074 9.36227 9.67066 9.44692 9.58576 9.53645C9.37389 9.76131 9.1092 10.0408 8.9433 10.1542C8.07045 10.7506 6.90271 10.4653 6.07672 10.1211C4.98709 9.66709 3.80078 8.83026 2.7356 7.76495C1.66943 6.69956 0.832675 5.51288 0.378671 4.42387C0.0349208 3.5977 -0.251075 2.42973 0.345468 1.55668C0.458749 1.39067 0.738925 1.12639 0.963495 0.914106C1.05334 0.829458 1.13732 0.749477 1.20373 0.683286C1.32162 0.565977 1.48117 0.500122 1.64749 0.500122C1.8138 0.500122 1.97335 0.565977 2.09125 0.683286L3.69726 2.28883C3.81451 2.40672 3.88032 2.56623 3.88032 2.7325C3.88032 2.89876 3.81451 3.05827 3.69726 3.17616L3.25976 3.61278C3.11366 3.75782 3.01828 3.94616 2.98785 4.14978C2.95741 4.35339 2.99353 4.56139 3.09084 4.74282C3.69259 5.87857 4.62159 6.80741 5.75744 7.40897C5.93883 7.50624 6.14679 7.54232 6.35034 7.51183C6.5539 7.48134 6.74216 7.38592 6.88709 7.23977L7.32351 6.80313C7.44141 6.68582 7.60096 6.61997 7.76727 6.61997C7.93359 6.61997 8.09314 6.68582 8.21103 6.80313L9.81715 8.40895C9.93439 8.5268 10.0002 8.68628 10.0002 8.85252C10.0002 9.01875 9.93439 9.17823 9.81715 9.29608Z" fill="#D7B27B"/>
</svg>
