<svg width="10" height="11" viewBox="0 0 10 11" fill="none" xmlns="http://www.w3.org/2000/svg">
<g clip-path="url(#clip0_1_929)">
<path d="M4.92874 5.31705C5.59052 5.31705 6.16356 5.0797 6.63177 4.6114C7.09999 4.14319 7.33734 3.5703 7.33734 2.90845C7.33734 2.24683 7.09999 1.67386 6.6317 1.20549C6.16341 0.73735 5.59044 0.5 4.92874 0.5C4.26689 0.5 3.694 0.73735 3.22578 1.20557C2.75757 1.67378 2.52014 2.24675 2.52014 2.90845C2.52014 3.5703 2.75757 4.14326 3.22586 4.61148C3.69415 5.07962 4.26712 5.31705 4.92874 5.31705Z" fill="#D7B27B"/>
<path d="M9.14314 8.18956C9.12964 7.99471 9.10233 7.78215 9.06212 7.55769C9.02153 7.33156 8.96927 7.11778 8.90671 6.92239C8.84209 6.72044 8.7542 6.52101 8.64555 6.3299C8.53279 6.13153 8.40034 5.9588 8.25172 5.81667C8.09631 5.66797 7.90604 5.54842 7.686 5.46121C7.46674 5.37447 7.22374 5.33052 6.96381 5.33052C6.86172 5.33052 6.763 5.37241 6.57234 5.49654C6.455 5.57306 6.31775 5.66156 6.16455 5.75945C6.03355 5.84291 5.85609 5.92111 5.6369 5.99191C5.42305 6.06111 5.20592 6.09621 4.99161 6.09621C4.7773 6.09621 4.56024 6.06111 4.34616 5.99191C4.1272 5.92119 3.94974 5.84299 3.81889 5.75952C3.66714 5.66255 3.52982 5.57405 3.41072 5.49646C3.22029 5.37233 3.12149 5.33044 3.01941 5.33044C2.7594 5.33044 2.51648 5.37447 2.29729 5.46129C2.07741 5.54834 1.88705 5.66789 1.73149 5.81674C1.58295 5.95895 1.45042 6.13161 1.33781 6.3299C1.22925 6.52101 1.14136 6.72037 1.07666 6.92247C1.01418 7.11786 0.961914 7.33156 0.921326 7.55769C0.881119 7.78185 0.853806 7.99448 0.840302 8.18979C0.827026 8.38113 0.820312 8.57973 0.820312 8.7803C0.820312 9.30231 0.986252 9.7249 1.31348 10.0366C1.63666 10.3441 2.06429 10.5001 2.5843 10.5001H7.39937C7.91939 10.5001 8.34686 10.3442 8.67012 10.0366C8.99742 9.72513 9.16336 9.30246 9.16336 8.78023C9.16328 8.57874 9.15649 8.37999 9.14314 8.18956Z" fill="#D7B27B"/>
</g>
<defs>
<clipPath id="clip0_1_929">
<rect width="10" height="10" fill="white" transform="translate(0 0.5)"/>
</clipPath>
</defs>
</svg>
